<?xml version="1.0" encoding="UTF-8" standalone="no"?>
<svg width="128px" height="128px" viewBox="0 0 128 128" version="1.1" xmlns="http://www.w3.org/2000/svg" xmlns:xlink="http://www.w3.org/1999/xlink" xmlns:sketch="http://www.bohemiancoding.com/sketch/ns">
    <!-- Generator: Sketch 3.3.1 (12002) - http://www.bohemiancoding.com/sketch -->
    <title>content-first</title>
    <desc>Created with Sketch.</desc>
    <defs></defs>
    <g id="Product-Icons" stroke="none" stroke-width="1" fill="none" fill-rule="evenodd" sketch:type="MSPage">
        <g id="content-first" sketch:type="MSArtboardGroup" fill="#F1CB3F">
            <g id="noun_67626_cc" sketch:type="MSLayerGroup" transform="translate(15.673701, 31.358553)">
                <path d="M2.10195572,64.4299685 C1.87802779,64.4299685 1.65832492,64.3960581 1.43439699,64.3239983 C0.323207465,63.9509831 -0.259850158,62.7429225 0.111954703,61.640832 L20.0415403,2.29750256 C20.328844,1.42854667 21.1400546,0.847829802 22.0484415,0.847829802 L22.0484415,0.847829802 C22.9568284,0.847829802 23.7511388,1.43702429 24.0511177,2.29750256 L43.9764782,61.640832 C44.3482831,62.7598777 43.7525503,63.9509831 42.6498109,64.3239983 C41.5512965,64.6970135 40.3471558,64.0993414 39.9753509,62.997251 L22.0484415,9.61792614 L4.12575718,62.997251 C3.80887804,63.8746845 2.98499227,64.4299685 2.10195572,64.4299685 L2.10195572,64.4299685 Z" id="Shape" sketch:type="MSShapeGroup"></path>
                <path d="M5.93480861,43.2393199 L35.6088517,43.2393199 L35.6088517,47.4784689 L5.93480861,47.4784689 L5.93480861,43.2393199 L5.93480861,43.2393199 Z" id="Shape" sketch:type="MSShapeGroup"></path>
                <path d="M94.5354433,64.4350649 L53.8312492,64.4350649 C53.0431801,64.4350649 52.3313757,63.9942522 51.9669996,63.2991245 C51.5899128,62.6039967 51.6492298,61.7689957 52.0856337,61.103538 L90.514596,5.08641367 L60.639997,5.08641367 C59.474841,5.08641367 58.5215316,4.1327323 58.5215316,2.96712173 C58.5215316,1.80151117 59.474841,0.847829802 60.639997,0.847829802 L94.5354433,0.847829802 C95.3235125,0.847829802 96.0395538,1.28864252 96.4039298,1.98377028 C96.7767797,2.6873752 96.7259365,3.51813764 96.2810588,4.17935672 L57.8478596,60.1964811 L94.5312064,60.1964811 C95.6963624,60.1964811 96.6496718,61.1501624 96.6496718,62.315773 C96.6496718,63.4813836 95.7005993,64.4350649 94.5354433,64.4350649 L94.5354433,64.4350649 Z" id="Shape" sketch:type="MSShapeGroup"></path>
                <path d="M56.3806818,30.5218729 L39.4240858,30.5218729 C38.2583198,30.5218729 37.3045113,29.5680643 37.3045113,28.4022984 C37.3045113,27.2365324 38.2583198,26.2827239 39.4240858,26.2827239 L56.3806818,26.2827239 C57.5464478,26.2827239 58.5002563,27.2365324 58.5002563,28.4022984 C58.5002563,29.5680643 57.5464478,30.5218729 56.3806818,30.5218729 L56.3806818,30.5218729 Z" id="Shape" sketch:type="MSShapeGroup"></path>
                <path d="M52.1363726,40.6958305 C51.665645,40.6958305 51.182195,40.5409243 50.7962832,40.2311118 C49.8929952,39.4942605 49.7615307,38.1796509 50.499428,37.2878935 L57.8784009,28.4079986 L50.499428,19.5322903 C49.7615307,18.6363462 49.8929952,17.3301099 50.7962832,16.5848853 C51.6910897,15.8564074 53.0354198,15.9736337 53.7775579,16.8695778 L62.259136,27.0766423 C62.8994951,27.8595468 62.8994951,28.960637 62.259136,29.7351681 L53.7775579,39.9422326 C53.3577198,40.4320712 52.7470462,40.6958305 52.1363726,40.6958305 L52.1363726,40.6958305 Z" id="Shape" sketch:type="MSShapeGroup"></path>
            </g>
        </g>
    </g>
</svg>