<?xml version="1.0" encoding="UTF-8" standalone="no"?>
<svg width="128px" height="128px" viewBox="0 0 128 128" version="1.1" xmlns="http://www.w3.org/2000/svg" xmlns:xlink="http://www.w3.org/1999/xlink" xmlns:sketch="http://www.bohemiancoding.com/sketch/ns">
    <!-- Generator: Sketch 3.3.1 (12002) - http://www.bohemiancoding.com/sketch -->
    <title>easy-to-use</title>
    <desc>Created with Sketch.</desc>
    <defs></defs>
    <g id="Product-Icons" stroke="none" stroke-width="1" fill="none" fill-rule="evenodd" sketch:type="MSPage">
        <g id="easy-to-use" sketch:type="MSArtboardGroup" fill="#E05A44">
            <g id="Group" sketch:type="MSLayerGroup" transform="translate(15.000000, 22.000000)">
                <path d="M94,81 L24.7560688,81 C23.6445335,81 22.75,81.8954305 22.75,83 C22.75,84.1122704 23.6481476,85 24.7560688,85 L95.7439312,85 C95.7870231,85 95.8297889,84.9986542 95.872189,84.9960026 C95.9144499,84.9986545 95.957067,85 96,85 C97.1122704,85 98,84.1013872 98,82.9928922 L98,24.0071078 C98,22.8905878 97.1045695,22 96,22 C94.8877296,22 94,22.8986128 94,24.0071078 L94,81 L94,81 Z" id="Rectangle-2-Copy-2" sketch:type="MSShapeGroup"></path>
                <path d="M83,70 L13.7560688,70 C12.6445335,70 11.75,70.8954305 11.75,72 C11.75,73.1122704 12.6481476,74 13.7560688,74 L84.7439312,74 C84.7870231,74 84.8297889,73.9986542 84.872189,73.9960026 C84.9144499,73.9986545 84.957067,74 85,74 C86.1122704,74 87,73.1013872 87,71.9928922 L87,13.0071078 C87,11.8905878 86.1045695,11 85,11 C83.8877296,11 83,11.8986128 83,13.0071078 L83,70 L83,70 Z" id="Rectangle-2-Copy" sketch:type="MSShapeGroup"></path>
                <path d="M72,59 L2.75606883,59 C1.64453347,59 0.75,59.8954305 0.75,61 C0.75,62.1122704 1.64814761,63 2.75606883,63 L73.7439312,63 C73.7870231,63 73.8297889,62.9986542 73.872189,62.9960026 C73.9144499,62.9986545 73.957067,63 74,63 C75.1122704,63 76,62.1013872 76,60.9928922 L76,2.00710776 C76,0.890587807 75.1045695,-3.55271368e-15 74,-3.55271368e-15 C72.8877296,-3.55271368e-15 72,0.898612752 72,2.00710776 L72,59 L72,59 Z" id="Rectangle-2-Copy-3" sketch:type="MSShapeGroup"></path>
                <path d="M4.75,4 L73.9939312,4 C75.1054665,4 76,3.1045695 76,2 C76,0.887729645 75.1018524,1.42108547e-14 73.9939312,1.42108547e-14 L3.00606883,7.10542736e-15 C2.9629769,7.10542736e-15 2.92021112,0.00134578949 2.87781096,0.00399738075 C2.83555013,0.00134547007 2.79293305,1.42108547e-14 2.75,1.42108547e-14 C1.63772964,1.42108547e-14 0.75,0.898612752 0.75,2.00710776 L0.75,60.9928922 C0.75,62.1094122 1.6454305,63 2.75,63 C3.86227036,63 4.75,62.1013872 4.75,60.9928922 L4.75,4 L4.75,4 Z" id="Rectangle-2-Copy-4" sketch:type="MSShapeGroup"></path>
            </g>
        </g>
    </g>
</svg>