<?xml version="1.0" encoding="UTF-8" standalone="no"?>
<svg width="256px" height="256px" viewBox="0 0 256 256" version="1.1" xmlns="http://www.w3.org/2000/svg" xmlns:xlink="http://www.w3.org/1999/xlink" xmlns:sketch="http://www.bohemiancoding.com/sketch/ns">
    <!-- Generator: Sketch 3.3.1 (12002) - http://www.bohemiancoding.com/sketch -->
    <title>Startup Template</title>
    <desc>Created with Sketch.</desc>
    <defs></defs>
    <g id="Page-1" stroke="none" stroke-width="1" fill="none" fill-rule="evenodd" sketch:type="MSPage">
        <g id="Startup-Template" sketch:type="MSArtboardGroup">
            <g id="noun_82931_cc" sketch:type="MSLayerGroup" transform="translate(7.019608, 0.000000)" fill="#000000">
                <path d="M237.647868,186.026667 L229.037722,186.026667 L229.037722,17.6355556 L237.647868,17.6355556 C239.943907,17.6355556 241.665936,15.9288889 241.665936,13.6533333 C241.665936,11.3777778 239.656902,9.67111111 237.647868,9.67111111 L124.854958,9.67111111 L124.854958,3.98222222 C124.854958,1.70666667 123.132929,0 120.83689,0 C118.540851,0 116.818822,1.70666667 116.818822,3.98222222 L116.818822,9.10222222 L4.02591119,9.10222222 C1.7298723,9.10222222 0.00784313725,10.8088889 0.00784313725,13.0844444 C0.00784313725,15.36 1.7298723,17.0666667 4.02591119,17.0666667 L12.636057,17.0666667 L12.636057,185.457778 L4.02591119,185.457778 C1.7298723,185.457778 0.00784313725,187.164444 0.00784313725,189.44 C0.00784313725,191.715556 1.7298723,193.422222 4.02591119,193.422222 L86.9703161,193.422222 L31.5783779,248.888889 C29.8563487,250.595556 29.8563487,253.155556 31.5783779,254.577778 C32.4393925,255.431111 33.5874119,255.715556 34.4484265,255.715556 C35.5964459,255.715556 36.4574605,255.431111 37.3184751,254.577778 L98.4505105,193.991111 L116.531817,193.991111 L116.531817,240.071111 C116.531817,242.346667 118.253846,244.053333 120.549885,244.053333 C122.845924,244.053333 124.567953,242.346667 124.567953,240.071111 L124.567953,194.275556 L142.649259,194.275556 L203.781295,254.862222 C204.642309,255.715556 205.790329,256 206.651343,256 C207.799363,256 208.660377,255.715556 209.521392,254.862222 C211.243421,253.155556 211.243421,250.595556 209.521392,249.173333 L154.990468,194.275556 L237.934873,194.275556 C240.230912,194.275556 241.952941,192.568889 241.952941,190.293333 C241.952941,187.733333 239.943907,186.026667 237.647868,186.026667 L237.647868,186.026667 Z M221.001586,186.026667 L20.6721931,186.026667 L20.6721931,17.6355556 L221.001586,17.6355556 L221.001586,186.026667 L221.001586,186.026667 Z" id="Shape" sketch:type="MSShapeGroup"></path>
            </g>
            <ellipse id="Oval-1" stroke="#F1CB3F" stroke-width="6" sketch:type="MSShapeGroup" cx="128" cy="65.1999738" rx="15" ry="15"></ellipse>
            <path d="M168,150 C176.284271,150 183,143.284271 183,135 C183,126.715729 176.284271,120 168,120 C159.715729,120 153,126.715729 153,135 C153,143.284271 159.715729,150 168,150 Z" id="Oval-1-Copy" stroke="#E05A44" stroke-width="6" sketch:type="MSShapeGroup"></path>
            <ellipse id="Oval-1-Copy-2" stroke="#40B39D" stroke-width="6" sketch:type="MSShapeGroup" cx="87" cy="135" rx="15" ry="15"></ellipse>
            <g id="noun_33870_cc" sketch:type="MSLayerGroup" transform="translate(127.500000, 137.000000) rotate(-270.000000) translate(-127.500000, -137.000000) translate(117.000000, 123.000000)" fill="#000000">
                <path d="M4.45890804,15.7041358 L7.38879709,18.7439771 L7.38879709,2.71037741 C7.38834744,1.21332322 8.55697569,0 9.99988759,0 C11.4427995,0 12.6127767,1.21332322 12.6127767,2.71037741 L12.6127767,18.7444438 L15.5413168,15.7046025 C16.5615621,14.645278 18.2167066,14.645278 19.2351533,15.7046025 C20.2549489,16.763927 20.2549489,18.4793793 19.2351533,19.5387038 L11.846581,27.2069066 C10.827235,28.2643645 9.17343945,28.2643645 8.15184523,27.2069066 L0.765521195,19.5387038 C-0.255173732,18.4793793 -0.255173732,16.7634603 0.765521195,15.7046025 C1.78441754,14.6448113 3.43866275,14.6448113 4.45890804,15.7041358 L4.45890804,15.7041358 Z" id="Shape" sketch:type="MSShapeGroup"></path>
            </g>
            <g id="noun_33870_cc-copy" sketch:type="MSLayerGroup" transform="translate(148.500000, 101.000000) scale(-1, -1) rotate(-210.000000) translate(-148.500000, -101.000000) translate(138.000000, 87.000000)" fill="#000000">
                <path d="M4.45890804,15.7041358 L7.38879709,18.7439771 L7.38879709,2.71037741 C7.38834744,1.21332322 8.55697569,0 9.99988759,0 C11.4427995,0 12.6127767,1.21332322 12.6127767,2.71037741 L12.6127767,18.7444438 L15.5413168,15.7046025 C16.5615621,14.645278 18.2167066,14.645278 19.2351533,15.7046025 C20.2549489,16.763927 20.2549489,18.4793793 19.2351533,19.5387038 L11.846581,27.2069066 C10.827235,28.2643645 9.17343945,28.2643645 8.15184523,27.2069066 L0.765521195,19.5387038 C-0.255173732,18.4793793 -0.255173732,16.7634603 0.765521195,15.7046025 C1.78441754,14.6448113 3.43866275,14.6448113 4.45890804,15.7041358 L4.45890804,15.7041358 Z" id="Shape" sketch:type="MSShapeGroup"></path>
            </g>
            <g id="noun_33870_cc-copy-2" sketch:type="MSLayerGroup" transform="translate(107.500000, 101.000000) scale(-1, 1) rotate(-210.000000) translate(-107.500000, -101.000000) translate(97.000000, 87.000000)" fill="#000000">
                <path d="M4.45890804,15.7041358 L7.38879709,18.7439771 L7.38879709,2.71037741 C7.38834744,1.21332322 8.55697569,0 9.99988759,0 C11.4427995,0 12.6127767,1.21332322 12.6127767,2.71037741 L12.6127767,18.7444438 L15.5413168,15.7046025 C16.5615621,14.645278 18.2167066,14.645278 19.2351533,15.7046025 C20.2549489,16.763927 20.2549489,18.4793793 19.2351533,19.5387038 L11.846581,27.2069066 C10.827235,28.2643645 9.17343945,28.2643645 8.15184523,27.2069066 L0.765521195,19.5387038 C-0.255173732,18.4793793 -0.255173732,16.7634603 0.765521195,15.7046025 C1.78441754,14.6448113 3.43866275,14.6448113 4.45890804,15.7041358 L4.45890804,15.7041358 Z" id="Shape" sketch:type="MSShapeGroup"></path>
            </g>
        </g>
    </g>
</svg>