<?xml version="1.0" encoding="UTF-8" standalone="no"?>
<svg width="256px" height="69px" viewBox="0 0 256 69" version="1.1" xmlns="http://www.w3.org/2000/svg" xmlns:xlink="http://www.w3.org/1999/xlink" xmlns:sketch="http://www.bohemiancoding.com/sketch/ns">
    <!-- Generator: Sketch 3.3.1 (12002) - http://www.bohemiancoding.com/sketch -->
    <title>upitch-icon</title>
    <desc>Created with Sketch.</desc>
    <defs></defs>
    <g id="Brand-Icons" stroke="none" stroke-width="1" fill="none" fill-rule="evenodd" sketch:type="MSPage">
        <g id="upitch-icon" sketch:type="MSArtboardGroup" fill="#40B39D">
            <path d="M50.1628615,45.0223237 C50.1628615,48.7023691 49.5303632,52.0229854 48.2653476,54.9842719 C47.0003319,57.9455585 45.2753365,60.4611769 43.0903095,62.5312024 C40.9052825,64.601228 38.3177894,66.1968488 35.3277524,67.3181126 C32.3377155,68.4393765 29.0889741,69 25.5814308,69 C22.0738874,69 18.825146,68.4393765 15.8351091,67.3181126 C12.8450722,66.1968488 10.243204,64.601228 8.02942669,62.5312024 C5.81564934,60.4611769 4.09065391,57.9455585 2.85438864,54.9842719 C1.61812336,52.0229854 1,48.7023691 1,45.0223237 L1,6.38203954 L11.8675799,6.38203954 L11.8675799,44.6773211 C11.8675799,46.1723396 12.0975793,47.7392105 12.557585,49.3779807 C13.0175907,51.016751 13.7794637,52.526122 14.8432268,53.906139 C15.9069899,55.2861561 17.3157362,56.421778 19.0695079,57.3130391 C20.8232795,58.2043001 22.9938988,58.6499239 25.5814308,58.6499239 C28.1689627,58.6499239 30.339582,58.2043001 32.0933536,57.3130391 C33.8471253,56.421778 35.2558716,55.2861561 36.3196347,53.906139 C37.3833979,52.526122 38.1452708,51.016751 38.6052765,49.3779807 C39.0652822,47.7392105 39.2952816,46.1723396 39.2952816,44.6773211 L39.2952816,6.38203954 L50.1628615,6.38203954 L50.1628615,45.0223237 Z M64.6098427,6.38203954 L85.1374937,6.38203954 C88.0700299,6.38203954 90.9018974,6.66953878 93.6331811,7.24454588 C96.3644649,7.81955298 98.7650835,8.78267544 100.835109,10.1339421 C102.905135,11.4852088 104.558255,13.296454 105.794521,15.5677321 C107.030786,17.8390101 107.648909,20.6708776 107.648909,24.0634196 C107.648909,27.9159672 106.987661,31.0209589 105.665145,33.3784881 C104.342628,35.7360172 102.560133,37.5616373 100.317605,38.8554033 C98.0750776,40.1491693 95.4732095,41.026042 92.5119229,41.4860477 C89.5506363,41.9460534 86.4600195,42.1760528 83.2399797,42.1760528 L75.4774226,42.1760528 L75.4774226,67.4474886 L64.6098427,67.4474886 L64.6098427,6.38203954 Z M82.0324708,32.8609843 C83.58499,32.8609843 85.1949858,32.8034844 86.8625064,32.688483 C88.530027,32.5734816 90.0681479,32.2284825 91.4769153,31.6534754 C92.8856827,31.0784683 94.0356797,30.2159706 94.9269407,29.0659563 C95.8182017,27.9159421 96.2638255,26.3059464 96.2638255,24.2359208 C96.2638255,22.3383974 95.8613266,20.8290264 95.0563166,19.7077625 C94.2513067,18.5864987 93.2163094,17.724001 91.9512938,17.1202435 C90.6862782,16.516486 89.2775319,16.1283621 87.7250127,15.9558599 C86.1724935,15.7833578 84.6774975,15.697108 83.2399797,15.697108 L75.4774226,15.697108 L75.4774226,32.8609843 L82.0324708,32.8609843 Z M117.610857,26.0471841 L127.960934,26.0471841 L127.960934,67.4474886 L117.610857,67.4474886 L117.610857,26.0471841 Z M116.144597,11.9883308 C116.144597,10.3208102 116.76272,8.86893901 117.998985,7.63267374 C119.235251,6.39640846 120.802121,5.7782851 122.699645,5.7782851 C124.597168,5.7782851 126.192789,6.36765854 127.486555,7.5464231 C128.780321,8.72518766 129.427194,10.2058087 129.427194,11.9883308 C129.427194,13.7708528 128.780321,15.2514739 127.486555,16.4302384 C126.192789,17.609003 124.597168,18.1983764 122.699645,18.1983764 C120.802121,18.1983764 119.235251,17.5802531 117.998985,16.3439878 C116.76272,15.1077225 116.144597,13.6558514 116.144597,11.9883308 L116.144597,11.9883308 Z M136.111618,34.8447488 L136.111618,26.0471841 L144.650431,26.0471841 L144.650431,14.058346 L155.000507,14.058346 L155.000507,26.0471841 L166.385591,26.0471841 L166.385591,34.8447488 L155.000507,34.8447488 L155.000507,52.957382 C155.000507,55.0274076 155.388631,56.6661533 156.164891,57.8736682 C156.941151,59.0811831 158.479271,59.6849315 160.7793,59.6849315 C161.699311,59.6849315 162.705559,59.5843068 163.798072,59.3830543 C164.890586,59.1818018 165.753083,58.8511777 166.385591,58.391172 L166.385591,67.102486 C165.293078,67.6199924 163.956206,67.9793665 162.374937,68.180619 C160.793667,68.3818715 159.399296,68.4824962 158.191781,68.4824962 C155.431747,68.4824962 153.174878,68.180622 151.421106,67.5768645 C149.667334,66.9731071 148.287338,66.0531095 147.281076,64.8168442 C146.274813,63.580579 145.584815,62.042458 145.21106,60.2024353 C144.837306,58.3624126 144.650431,56.2349182 144.650431,53.8198884 L144.650431,34.8447488 L136.111618,34.8447488 Z M203.861492,38.4672755 C202.653977,37.2022599 201.38898,36.1960125 200.066464,35.4485033 C198.743947,34.700994 197.392701,34.327245 196.012684,34.327245 C194.11516,34.327245 192.418915,34.6722441 190.923896,35.3622526 C189.428878,36.0522612 188.149506,36.9722587 187.085743,38.1222729 C186.02198,39.2722871 185.216982,40.5947836 184.670726,42.0898021 C184.124469,43.5848206 183.851344,45.1373165 183.851344,46.7473364 C183.851344,48.3573563 184.124469,49.9098521 184.670726,51.4048706 C185.216982,52.8998891 186.02198,54.2223856 187.085743,55.3723998 C188.149506,56.522414 189.428878,57.4424116 190.923896,58.1324201 C192.418915,58.8224286 194.11516,59.1674277 196.012684,59.1674277 C197.622704,59.1674277 199.1177,58.8368036 200.497717,58.1755454 C201.877734,57.5142872 203.056481,56.5511648 204.033993,55.2861492 L210.934044,62.7037037 C209.899031,63.7387165 208.705909,64.6299641 207.354642,65.3774734 C206.003376,66.1249826 204.637754,66.728731 203.257737,67.1887367 C201.87772,67.6487424 200.555224,67.9793665 199.290208,68.180619 C198.025192,68.3818715 196.932695,68.4824962 196.012684,68.4824962 C192.907646,68.4824962 189.975153,67.9649976 187.215119,66.9299848 C184.455085,65.894972 182.068841,64.4287259 180.056317,62.5312024 C178.043792,60.633679 176.448171,58.34806 175.269406,55.674277 C174.090642,53.000494 173.501268,50.0248769 173.501268,46.7473364 C173.501268,43.4697959 174.090642,40.4941788 175.269406,37.8203957 C176.448171,35.1466127 178.043792,32.8609937 180.056317,30.9634703 C182.068841,29.0659469 184.455085,27.5997007 187.215119,26.564688 C189.975153,25.5296752 192.907646,25.0121765 196.012684,25.0121765 C198.657717,25.0121765 201.317085,25.5153002 203.990868,26.5215626 C206.664651,27.5278251 209.007769,29.1234458 211.020294,31.3084728 L203.861492,38.4672755 Z M228.572298,31.8259766 L228.7448,31.8259766 C229.54981,30.1009553 230.972931,28.5340845 233.014206,27.1253171 C235.055481,25.7165497 237.686099,25.0121765 240.906139,25.0121765 C243.666173,25.0121765 246.009292,25.4721753 247.935566,26.3921867 C249.861839,27.312198 251.42871,28.5196949 252.636225,30.0147133 C253.84374,31.5097318 254.706238,33.2347272 255.223744,35.1897514 C255.741251,37.1447755 256,39.1860201 256,41.3135464 L256,67.4474886 L245.649924,67.4474886 L245.649924,46.4885845 C245.649924,45.3385703 245.592424,44.0591986 245.477423,42.6504312 C245.362421,41.2416638 245.060547,39.9191673 244.571791,38.6829021 C244.083035,37.4466368 243.321162,36.4116395 242.286149,35.5778792 C241.251136,34.7441189 239.84239,34.327245 238.059868,34.327245 C236.334847,34.327245 234.882976,34.6147443 233.704211,35.1897514 C232.525446,35.7647585 231.547949,36.5410064 230.771689,37.5185185 C229.99543,38.4960306 229.434806,39.6172776 229.089802,40.8822932 C228.744798,42.1473089 228.572298,43.4698054 228.572298,44.8498224 L228.572298,67.4474886 L218.222222,67.4474886 L218.222222,2.2420091 L228.572298,2.2420091 L228.572298,31.8259766 Z" id="UPitch" sketch:type="MSShapeGroup"></path>
        </g>
    </g>
</svg>