<?xml version="1.0" encoding="UTF-8" standalone="no"?>
<svg width="128px" height="128px" viewBox="0 0 128 128" version="1.1" xmlns="http://www.w3.org/2000/svg" xmlns:xlink="http://www.w3.org/1999/xlink" xmlns:sketch="http://www.bohemiancoding.com/sketch/ns">
    <!-- Generator: Sketch 3.3.1 (12002) - http://www.bohemiancoding.com/sketch -->
    <title>save-time</title>
    <desc>Created with Sketch.</desc>
    <defs>
        <path id="path-1" d="M10.2307692,58 C9.00384615,58 8,56.9961538 8,55.7692308 C8,25.0158462 33.0158462,0 63.7692308,0 C64.9961538,0 66,1.00384615 66,2.23076923 C66,3.45769231 64.9961538,4.46153846 63.7692308,4.46153846 C35.4830769,4.46153846 12.4615385,27.4786154 12.4615385,55.7692308 C12.4615385,56.9961538 11.4621538,58 10.2307692,58 L10.2307692,58 Z"></path>
        <path id="path-2" d="M10.2738776,58 C10.1877858,58 10.1062251,57.9955941 10.0201333,57.9867824 C9.23171355,57.8942596 8.55657251,57.4272394 8.22126756,56.731115 L0.214729141,40.1342761 C-0.315415168,39.0328135 0.169417662,37.7242759 1.30220465,37.2087914 C2.42592934,36.6933068 3.78074257,37.1647328 4.31994918,38.2661955 L10.7541793,51.5982992 L19.9478784,40.1166527 C20.7091113,39.1605831 22.1273606,38.9799433 23.119682,39.7377496 C24.1165346,40.4867441 24.2932493,41.8569637 23.5138919,42.8262508 L12.0546187,57.145265 C11.6286908,57.6915905 10.9716744,58 10.2738776,58 L10.2738776,58 Z"></path>
        <path d="M62.5,19.4444444 C81.8901111,19.4444444 97.6111111,35.3644444 97.6111111,55 C97.6111111,74.6355556 81.8901111,90.5555556 62.5,90.5555556 C43.1142778,90.5555556 27.3888889,74.6355556 27.3888889,55 C27.3888889,35.3644444 43.1098889,19.4444444 62.5,19.4444444 L62.5,19.4444444 Z M62.5,15 C40.7223333,15 23,32.9422222 23,55 C23,77.0577778 40.7179444,95 62.5,95 C84.2820556,95 102,77.0577778 102,55 C102,32.9422222 84.2820556,15 62.5,15 L62.5,15 L62.5,15 Z" id="path-3"></path>
        <path id="path-4" d="M62.2019808,57 C61.6429572,57 61.0751301,56.7843029 60.6437575,56.3573108 C59.7854142,55.5077285 59.7854142,54.1034966 60.6437575,53.2451103 L78.2508003,35.6371867 C79.1003401,34.7876044 80.5045018,34.7876044 81.3628451,35.6371867 C82.212385,36.495573 82.212385,37.8998049 81.3628451,38.7493872 L63.7558023,56.3573108 C63.3288315,56.7843029 62.7698079,57 62.2019808,57 L62.2019808,57 Z"></path>
        <path id="path-5" d="M60.8835043,57 C60.3434842,57 59.79496,56.7916328 59.3782516,56.3791508 L46.6218734,43.6219749 C45.7927089,42.8012632 45.7927089,41.4447502 46.6218734,40.6155337 C47.4425338,39.7948221 48.798962,39.7948221 49.6281266,40.6155337 L62.3845048,53.3727096 C63.2051651,54.2019261 63.2051651,55.5584391 62.3845048,56.3791508 C61.9720485,56.7916328 61.4320285,57 60.8835043,57 L60.8835043,57 Z"></path>
    </defs>
    <g id="Product-Icons" stroke="none" stroke-width="1" fill="none" fill-rule="evenodd" sketch:type="MSPage">
        <g id="save-time" sketch:type="MSArtboardGroup">
            <g id="noun_68624_cc" sketch:type="MSLayerGroup" transform="translate(1.000000, 10.000000)">
                <g id="Shape">
                    <use fill="#FFFFFF" sketch:type="MSShapeGroup" xlink:href="#path-1"></use>
                    <use fill="#40B39D" xlink:href="#path-1"></use>
                </g>
                <g id="Shape">
                    <use fill="#FFFFFF" sketch:type="MSShapeGroup" xlink:href="#path-2"></use>
                    <use fill="#40B39D" xlink:href="#path-2"></use>
                </g>
                <g id="Shape">
                    <use fill="#FFFFFF" sketch:type="MSShapeGroup" xlink:href="#path-3"></use>
                    <use fill="#40B39D" xlink:href="#path-3"></use>
                </g>
                <g id="Shape">
                    <use fill="#FFFFFF" sketch:type="MSShapeGroup" xlink:href="#path-4"></use>
                    <use fill="#40B39D" xlink:href="#path-4"></use>
                </g>
                <g id="Shape">
                    <use fill="#FFFFFF" sketch:type="MSShapeGroup" xlink:href="#path-5"></use>
                    <use fill="#40B39D" xlink:href="#path-5"></use>
                </g>
            </g>
        </g>
    </g>
</svg>